<svg xmlns="http://www.w3.org/2000/svg" viewBox="0 0 900 600">
<path fill="#fff" d="M0 0h900v600H0z"/>
<path fill="#0b4ea2" d="M0 300h900v300H0z"/>
<path fill="#ee1c25" d="M0 0h900v200H0z"/>
<path fill="#fff" stroke="#fff" stroke-width="10" d="M198 153l62 189-160-117h197L136 342z"/>
<path fill="#0b4ea2" d="M239.8 191.6l-50 153.8h.4c34.8 0 63-28.2 63-63 0-38.6-31.4-70-70-70-17.8 0-34.4 6.8-46.8 17.8L239.8 191.6z"/>
<path fill="#ee1c25" d="M253.2 282.4c0 34.8-28.2 63-63 63-12.4 0-24.2-3.6-34.2-10l50-153.8c26.6 23.4 47.2 62.4 47.2 100.8z"/>
<path fill="#fff" d="M241.6 234.6c8.4 13.6 13.2 29.6 13.2 46.8 0 49.6-40.2 89.8-89.8 89.8-17.2 0-33.2-4.8-46.8-13.2l123.4-123.4z"/>
<path fill="#fff" d="M211.8 186.4c0 14.6 3.4 28.4 9.4 40.8l-123.4 123.4c-9.6-12.2-15.4-27.6-15.4-44.2 0-38.6 31.4-70 70-70 23.8 0 45.4 11.4 59.4 29.8z"/>
</svg>
